<svg width="42" height="45" viewBox="0 0 42 45" fill="none" xmlns="http://www.w3.org/2000/svg">
<path d="M28.7375 3.27253C26.7729 1.16216 24.0288 0 21.0001 0C17.9551 0 15.202 1.15513 13.2464 3.25244C11.2696 5.37285 10.3065 8.25465 10.5326 11.3665C10.9809 17.5057 15.6765 22.4999 21.0001 22.4999C26.3236 22.4999 31.0111 17.5067 31.4664 11.3685C31.6956 8.28478 30.7264 5.40901 28.7375 3.27253Z" fill="#A152EF"/>
<path d="M38.7687 44.9998H3.23126C2.7661 45.0058 2.30545 44.9086 1.88282 44.7152C1.46018 44.5218 1.08619 44.2371 0.788056 43.8818C0.131824 43.1014 -0.132688 42.0356 0.0631718 40.9578C0.915264 36.255 3.57452 32.3044 7.75421 29.5311C11.4675 27.0692 16.1711 25.7142 21 25.7142C25.8289 25.7142 30.5325 27.0702 34.2458 29.5311C38.4255 32.3034 41.0847 36.254 41.9368 40.9568C42.1327 42.0346 41.8682 43.1004 41.2119 43.8808C40.9139 44.2363 40.54 44.5212 40.1173 44.7147C39.6947 44.9083 39.234 45.0057 38.7687 44.9998Z" fill="#A152EF"/>
</svg>
